<svg width="50" height="50" viewBox="0 0 50 50" fill="none" xmlns="http://www.w3.org/2000/svg">
<path d="M25.0569 0H24.9431C11.1674 0 0 11.1674 0 24.9431V25.0569C0 38.8326 11.1674 50 24.9431 50H25.0569C38.8326 50 50 38.8326 50 25.0569V24.9431C50 11.1674 38.8326 0 25.0569 0Z" fill="#5865F2"/>
<path d="M37.5118 13.5217C35.2101 12.4654 32.7436 11.6876 30.1633 11.2427C30.116 11.2339 30.0687 11.2549 30.0459 11.2987C29.7288 11.8628 29.3767 12.6003 29.1315 13.1784C26.3567 12.7632 23.596 12.7632 20.8773 13.1784C20.6303 12.5863 20.2659 11.8628 19.9471 11.2987C19.9226 11.2567 19.8753 11.2357 19.8298 11.2427C17.2512 11.6876 14.783 12.4654 12.4812 13.5217C12.4619 13.5305 12.4444 13.5445 12.4321 13.5637C7.75149 20.5567 6.46918 27.378 7.09805 34.1152C7.10156 34.1485 7.11908 34.18 7.14535 34.1993C10.2337 36.4678 13.2257 37.8446 16.1616 38.7573C16.2089 38.7713 16.258 38.7538 16.2877 38.7153C16.9814 37.7676 17.6015 36.7673 18.1323 35.7145C18.1639 35.6532 18.1323 35.5796 18.0692 35.5551C17.0865 35.182 16.1528 34.7283 15.2524 34.2133C15.1806 34.1712 15.1754 34.0696 15.2402 34.0206C15.4294 33.8787 15.6186 33.7316 15.799 33.5827C15.8323 33.5546 15.8778 33.5494 15.9163 33.5669C21.825 36.2646 28.2224 36.2646 34.0609 33.5669C34.0995 33.5476 34.145 33.5546 34.1783 33.5809C34.3587 33.7298 34.5479 33.8787 34.7388 34.0206C34.8036 34.0696 34.8002 34.1712 34.7283 34.2133C33.8297 34.7388 32.8943 35.1837 31.9098 35.5551C31.845 35.5796 31.8169 35.6532 31.8484 35.7163C32.3915 36.7656 33.0099 37.7658 33.6913 38.7153C33.7193 38.7556 33.7701 38.7731 33.8174 38.7591C36.7673 37.8464 39.7593 36.4695 42.8476 34.201C42.8739 34.1818 42.8914 34.1502 42.895 34.1187C43.6482 26.3304 41.6337 19.5652 37.5574 13.5672C37.5469 13.548 37.5311 13.5322 37.5101 13.5234L37.5118 13.5217ZM19.0117 30.0126C17.2319 30.0126 15.7675 28.38 15.7675 26.3742C15.7675 24.3685 17.2056 22.7359 19.0117 22.7359C20.8177 22.7359 22.2857 24.3843 22.2559 26.3742C22.2559 28.38 20.8177 30.0126 19.0117 30.0126ZM31.0094 30.0126C29.2296 30.0126 27.7652 28.38 27.7652 26.3742C27.7652 24.3685 29.2033 22.7359 31.0094 22.7359C32.8154 22.7359 34.2834 24.3843 34.2536 26.3742C34.2536 28.38 32.8312 30.0126 31.0094 30.0126Z" fill="white"/>
</svg>
