<svg width="220" height="80" viewBox="0 0 220 80" fill="none" xmlns="http://www.w3.org/2000/svg">
<g clip-path="url(#clip0_21_6)">
<g clip-path="url(#clip1_21_6)">
<path d="M220 0H0V80H220V0Z" fill="#0B0D17"/>
<path d="M41.9164 51.5911C57.7604 47.7317 69.0748 39.4135 67.188 33.0119C65.3012 26.6103 50.9275 24.5495 35.0836 28.4089C19.2396 32.2683 7.92517 40.5865 9.812 46.9881C11.6988 53.3897 26.0725 55.4505 41.9164 51.5911Z" stroke="#4FC3F7" stroke-width="2.4"/>
<path d="M51.7 19L55 25L61.6 28L55 31L51.7 37L48.4 31L41.8 28L48.4 25L51.7 19Z" fill="#4FC3F7"/>
<path d="M78.276 50V37.218C78.276 36.6607 78.4153 36.1547 78.694 35.7C78.9727 35.2307 79.3393 34.8567 79.794 34.578C80.2633 34.2993 80.7767 34.16 81.334 34.16H91.036C91.5933 34.16 92.1067 34.2993 92.576 34.578C93.0453 34.8567 93.4193 35.2307 93.698 35.7C93.9767 36.1547 94.116 36.6607 94.116 37.218V50H91.19V44.676H81.18V50H78.276ZM81.18 41.772H91.19V37.35C91.19 37.2767 91.1607 37.218 91.102 37.174C91.0433 37.1153 90.9773 37.086 90.904 37.086H81.444C81.3707 37.086 81.3047 37.1153 81.246 37.174C81.202 37.218 81.18 37.2767 81.18 37.35V41.772ZM96.6666 50V34.16H109.427C109.984 34.16 110.497 34.2993 110.967 34.578C111.436 34.8567 111.81 35.2307 112.089 35.7C112.367 36.1547 112.507 36.6607 112.507 37.218V46.942C112.507 47.4993 112.367 48.0127 112.089 48.482C111.81 48.9367 111.436 49.3033 110.967 49.582C110.497 49.8607 109.984 50 109.427 50H96.6666ZM99.8126 47.074H109.295C109.368 47.074 109.434 47.052 109.493 47.008C109.551 46.9493 109.581 46.8833 109.581 46.81V37.35C109.581 37.2767 109.551 37.218 109.493 37.174C109.434 37.1153 109.368 37.086 109.295 37.086H99.8126C99.7393 37.086 99.6733 37.1153 99.6146 37.174C99.5706 37.218 99.5486 37.2767 99.5486 37.35V46.81C99.5486 46.8833 99.5706 46.9493 99.6146 47.008C99.6733 47.052 99.7393 47.074 99.8126 47.074ZM121.739 50V37.218C121.739 36.6607 121.878 36.1547 122.157 35.7C122.436 35.2307 122.802 34.8567 123.257 34.578C123.726 34.2993 124.24 34.16 124.797 34.16H134.499C135.056 34.16 135.57 34.2993 136.039 34.578C136.508 34.8567 136.882 35.2307 137.161 35.7C137.44 36.1547 137.579 36.6607 137.579 37.218V50H134.653V44.676H124.643V50H121.739ZM124.643 41.772H134.653V37.35C134.653 37.2767 134.624 37.218 134.565 37.174C134.506 37.1153 134.44 37.086 134.367 37.086H124.907C124.834 37.086 124.768 37.1153 124.709 37.174C124.665 37.218 124.643 37.2767 124.643 37.35V41.772ZM143.078 50C142.52 50 142.007 49.8607 141.538 49.582C141.083 49.3033 140.716 48.9367 140.438 48.482C140.159 48.0127 140.02 47.4993 140.02 46.942V45.732H142.924V46.81C142.924 46.8833 142.946 46.9493 142.99 47.008C143.048 47.052 143.114 47.074 143.188 47.074H152.67C152.743 47.074 152.802 47.052 152.846 47.008C152.904 46.9493 152.934 46.8833 152.934 46.81V43.796C152.934 43.7227 152.904 43.664 152.846 43.62C152.802 43.576 152.743 43.554 152.67 43.554H143.078C142.52 43.554 142.007 43.4147 141.538 43.136C141.083 42.8573 140.716 42.4907 140.438 42.036C140.159 41.5667 140.02 41.046 140.02 40.474V37.218C140.02 36.6607 140.159 36.1547 140.438 35.7C140.716 35.2307 141.083 34.8567 141.538 34.578C142.007 34.2993 142.52 34.16 143.078 34.16H152.802C153.359 34.16 153.865 34.2993 154.32 34.578C154.789 34.8567 155.163 35.2307 155.442 35.7C155.72 36.1547 155.86 36.6607 155.86 37.218V38.428H152.934V37.35C152.934 37.2767 152.904 37.218 152.846 37.174C152.802 37.1153 152.743 37.086 152.67 37.086H143.188C143.114 37.086 143.048 37.1153 142.99 37.174C142.946 37.218 142.924 37.2767 142.924 37.35V40.364C142.924 40.4373 142.946 40.496 142.99 40.54C143.048 40.584 143.114 40.606 143.188 40.606H152.802C153.359 40.606 153.865 40.7453 154.32 41.024C154.789 41.3027 155.163 41.6767 155.442 42.146C155.72 42.6007 155.86 43.114 155.86 43.686V46.942C155.86 47.4993 155.72 48.0127 155.442 48.482C155.163 48.9367 154.789 49.3033 154.32 49.582C153.865 49.8607 153.359 50 152.802 50H143.078ZM163.937 50V37.086H157.469V34.16H173.309V37.086H166.863V50H163.937ZM187.583 50L182.809 44.302H186.615L190.751 49.186V50H187.583ZM174.955 50V34.182H187.715C188.272 34.182 188.785 34.3213 189.255 34.6C189.724 34.8787 190.098 35.2527 190.377 35.722C190.655 36.1767 190.795 36.6827 190.795 37.24V41.508C190.795 42.0653 190.655 42.5787 190.377 43.048C190.098 43.5173 189.724 43.8913 189.255 44.17C188.785 44.434 188.272 44.566 187.715 44.566L177.859 44.588V50H174.955ZM178.123 41.64H187.583C187.656 41.64 187.722 41.618 187.781 41.574C187.839 41.53 187.869 41.4713 187.869 41.398V37.35C187.869 37.2767 187.839 37.218 187.781 37.174C187.722 37.1153 187.656 37.086 187.583 37.086H178.123C178.049 37.086 177.983 37.1153 177.925 37.174C177.881 37.218 177.859 37.2767 177.859 37.35V41.398C177.859 41.4713 177.881 41.53 177.925 41.574C177.983 41.618 178.049 41.64 178.123 41.64ZM193.153 50V37.218C193.153 36.6607 193.292 36.1547 193.571 35.7C193.85 35.2307 194.216 34.8567 194.671 34.578C195.14 34.2993 195.654 34.16 196.211 34.16H205.913C206.47 34.16 206.984 34.2993 207.453 34.578C207.922 34.8567 208.296 35.2307 208.575 35.7C208.854 36.1547 208.993 36.6607 208.993 37.218V50H206.067V44.676H196.057V50H193.153ZM196.057 41.772H206.067V37.35C206.067 37.2767 206.038 37.218 205.979 37.174C205.92 37.1153 205.854 37.086 205.781 37.086H196.321C196.248 37.086 196.182 37.1153 196.123 37.174C196.079 37.218 196.057 37.2767 196.057 37.35V41.772Z" fill="white"/>
</g>
</g>
<defs>
<clipPath id="clip0_21_6">
<rect width="220" height="80" fill="white"/>
</clipPath>
<clipPath id="clip1_21_6">
<rect width="220" height="80" fill="white"/>
</clipPath>
</defs>
</svg>
