<svg width="563" height="564" viewBox="0 0 563 564" fill="none" xmlns="http://www.w3.org/2000/svg">
<path d="M83.4375 437.813C120.938 400.313 124.688 390.938 148.125 414.375C171.562 437.813 162.188 440.625 124.688 479.063C96.5625 507.188 60.9375 501.563 60.9375 501.563C60.9375 501.563 55.3125 465.938 83.4375 437.813Z" fill="#FF9D27"/>
<path d="M154.688 476.25C169.688 436.875 174.375 432.188 152.812 420C131.25 407.812 131.25 416.25 117.188 455.625C105.938 484.688 119.062 510.938 119.062 510.938C119.062 510.938 144.375 506.25 154.688 476.25Z" fill="#FF9D27"/>
<path d="M133.125 439.688C141.562 418.125 141.562 413.438 152.812 420C165 426.562 162.188 429.375 153.75 450.937C148.125 466.875 134.062 470.625 134.062 470.625C134.062 470.625 127.5 456.562 133.125 439.688Z" fill="#FDF516"/>
<path d="M141.563 409.688C129.375 388.125 124.688 392.813 85.3125 407.813C56.25 419.063 50.625 443.438 50.625 443.438C50.625 443.438 76.875 456.563 105.938 445.313C145.313 430.313 153.75 430.313 141.563 409.688Z" fill="#FF9D27"/>
<path d="M121.875 429.375C143.438 420.938 148.125 420.938 141.563 409.688C135 397.5 132.188 400.312 110.625 408.75C94.6875 414.375 90.9375 428.438 90.9375 428.438C90.9375 428.438 105.938 435 121.875 429.375Z" fill="#FDF516"/>
<path d="M111.562 427.5C132.188 406.875 134.062 401.25 147.188 414.375C160.312 427.5 154.687 429.375 134.062 450C118.125 465.938 98.4375 462.187 98.4375 462.187C98.4375 462.187 96.5625 443.437 111.562 427.5Z" fill="#FDF516"/>
<path d="M154.688 337.5C96.5625 240 0 280.312 0 280.312C0 280.312 137.812 142.5 230.625 235.312L154.688 337.5Z" fill="#3BAACF"/>
<path d="M199.688 265.312L229.688 235.312C137.812 142.5 0 280.312 0 280.312C0 280.312 120.938 194.062 199.688 265.312Z" fill="#428BC1"/>
<path d="M225 407.812C322.5 465.938 282.188 562.5 282.188 562.5C282.188 562.5 420 424.688 327.188 331.875L225 407.812Z" fill="#3BAACF"/>
<path d="M297.188 362.812L327.188 332.812C420 425.625 282.187 563.438 282.187 563.438C282.187 563.438 368.438 441.562 297.188 362.812Z" fill="#428BC1"/>
<path d="M438.75 270.938C329.062 379.688 208.125 438.75 165.938 396.562C123.75 354.375 182.812 233.438 291.562 123.75C419.062 -3.75 560.625 1.875 560.625 1.875C560.625 1.875 565.312 143.438 438.75 270.938Z" fill="#C5D0D8"/>
<path d="M410.625 240C301.875 348.75 193.125 420 167.813 394.688C142.5 369.375 213.75 260.625 322.5 151.875C450 24.375 562.5 0 562.5 0C562.5 0 538.125 112.5 410.625 240Z" fill="#DAE3EA"/>
<path d="M209.062 426.562C204.375 431.25 196.875 431.25 192.188 426.562L135.938 370.312C131.25 365.625 131.25 357.188 135.938 352.5L152.812 335.625L225.938 408.75L209.062 426.562Z" fill="#C94747"/>
<path d="M193.125 409.688C188.438 414.375 182.813 416.25 180 413.438L148.125 381.562C145.312 378.75 147.188 373.125 151.875 368.438L168.75 351.562L210 392.812L193.125 409.688Z" fill="#F15744"/>
<path d="M177.187 433.125C174.375 435.938 167.812 435.938 165 433.125L128.438 396.562C125.625 393.75 126.562 388.125 129.375 385.312L140.625 374.062L188.438 421.875L177.187 433.125Z" fill="#3E4347"/>
<path d="M169.687 425.625C166.875 428.438 161.25 429.375 159.375 427.5L134.062 402.188C132.187 400.312 133.125 395.625 136.875 392.812L148.125 381.562L180.937 414.375L169.687 425.625Z" fill="#62727A"/>
<path d="M560.625 1.875C560.625 1.875 510 0 441.562 26.25L536.25 120.938C562.5 52.5 560.625 1.875 560.625 1.875Z" fill="#C94747"/>
<path d="M560.625 1.875C560.625 1.875 520.312 10.3125 459.375 45L517.5 103.125C552.188 42.1875 560.625 1.875 560.625 1.875Z" fill="#F15744"/>
<path d="M389.062 220.312C414.951 220.312 435.938 199.326 435.938 173.438C435.938 147.549 414.951 126.562 389.062 126.562C363.174 126.562 342.188 147.549 342.188 173.438C342.188 199.326 363.174 220.312 389.062 220.312Z" fill="#EDF4F9"/>
<path d="M389.062 204.375C406.149 204.375 420 190.524 420 173.438C420 156.351 406.149 142.5 389.062 142.5C371.976 142.5 358.125 156.351 358.125 173.438C358.125 190.524 371.976 204.375 389.062 204.375Z" fill="#3BAACF"/>
<path d="M295.312 314.062C321.201 314.062 342.188 293.076 342.188 267.188C342.188 241.299 321.201 220.312 295.312 220.312C269.424 220.312 248.438 241.299 248.438 267.188C248.438 293.076 269.424 314.062 295.312 314.062Z" fill="#EDF4F9"/>
<path d="M295.312 298.125C312.399 298.125 326.25 284.274 326.25 267.188C326.25 250.101 312.399 236.25 295.312 236.25C278.226 236.25 264.375 250.101 264.375 267.188C264.375 284.274 278.226 298.125 295.312 298.125Z" fill="#3BAACF"/>
<path d="M439.688 45.9375C436.875 48.75 431.25 48.75 428.438 45.9375C425.625 43.125 425.625 37.5 428.438 34.6875C431.25 31.875 436.875 31.875 439.688 34.6875C442.5 37.5 442.5 43.125 439.688 45.9375Z" fill="white"/>
<path d="M455.625 69.375C459.767 69.375 463.125 66.0171 463.125 61.875C463.125 57.7329 459.767 54.375 455.625 54.375C451.483 54.375 448.125 57.7329 448.125 61.875C448.125 66.0171 451.483 69.375 455.625 69.375Z" fill="white"/>
<path d="M478.125 91.875C482.267 91.875 485.625 88.5171 485.625 84.375C485.625 80.2329 482.267 76.875 478.125 76.875C473.983 76.875 470.625 80.2329 470.625 84.375C470.625 88.5171 473.983 91.875 478.125 91.875Z" fill="white"/>
<path d="M499.688 114.375C503.83 114.375 507.188 111.017 507.188 106.875C507.188 102.733 503.83 99.375 499.688 99.375C495.545 99.375 492.188 102.733 492.188 106.875C492.188 111.017 495.545 114.375 499.688 114.375Z" fill="white"/>
<path d="M522.188 135.938C526.33 135.938 529.688 132.58 529.688 128.438C529.688 124.295 526.33 120.938 522.188 120.938C518.045 120.938 514.688 124.295 514.688 128.438C514.688 132.58 518.045 135.938 522.188 135.938Z" fill="white"/>
</svg>
