<svg width="50" height="50" viewBox="0 0 50 50" fill="none" xmlns="http://www.w3.org/2000/svg">
<path d="M25.0569 0H24.9431C11.1674 0 0 11.1674 0 24.9431V25.0569C0 38.8326 11.1674 50 24.9431 50H25.0569C38.8326 50 50 38.8326 50 25.0569V24.9431C50 11.1674 38.8326 0 25.0569 0Z" fill="#00B0F2"/>
<path d="M9.46989 24.148C9.53996 24.1129 9.61006 24.0796 9.67838 24.0481C10.8661 23.4981 12.0695 22.983 13.2712 22.468C13.336 22.468 13.4446 22.3927 13.5059 22.3682C13.5988 22.3279 13.6916 22.2894 13.7845 22.2491L14.3187 22.0196C14.6761 21.8672 15.0317 21.7148 15.389 21.5624C16.102 21.2576 16.8149 20.9528 17.5279 20.6462C18.9538 20.0366 20.3815 19.4253 21.8074 18.8156C23.2334 18.206 24.661 17.5947 26.0869 16.9851C27.5129 16.3755 28.9405 15.7641 30.3664 15.1545C31.7924 14.5449 33.2201 13.9335 34.646 13.3239C34.963 13.1873 35.3064 12.9841 35.6462 12.9245C35.9318 12.8737 36.2103 12.7756 36.4975 12.7213C37.0423 12.618 37.6432 12.5759 38.1652 12.8019C38.3456 12.8807 38.5121 12.9911 38.6504 13.1295C39.3126 13.7846 39.2198 14.8602 39.0796 15.7816C38.1039 22.2035 37.1282 28.6272 36.1507 35.049C36.0176 35.9302 35.8354 36.8971 35.1399 37.4542C34.5514 37.9254 33.714 37.978 32.987 37.7783C32.2601 37.5768 31.6189 37.1546 30.9901 36.7395C28.3817 35.0123 25.7716 33.285 23.1633 31.5578C22.5432 31.1479 21.853 30.6119 21.86 29.8674C21.8635 29.4189 22.1315 29.0195 22.4048 28.6639C24.6715 25.707 27.942 23.675 30.3752 20.8547C30.7186 20.457 30.9883 19.7388 30.5171 19.5093C30.2368 19.3727 29.9145 19.5584 29.6587 19.7353C26.4425 21.9688 23.2281 24.204 20.0119 26.4375C18.9626 27.1662 17.8625 27.916 16.5978 28.0946C15.4661 28.2558 14.3275 27.9405 13.2327 27.6182C12.3148 27.3484 11.3986 27.0716 10.4859 26.7861C10.0007 26.6354 9.49967 26.4725 9.1248 26.1309C8.74993 25.7893 8.53449 25.2148 8.76046 24.7593C8.90236 24.4738 9.17738 24.2933 9.46642 24.1462L9.46989 24.148Z" fill="#FEFFFC"/>
</svg>
